<svg width="15" height="16" viewBox="0 0 15 16" fill="none" xmlns="http://www.w3.org/2000/svg">
<g clip-path="url(#clip0_1_166)">
<path d="M5.67682 12.5213L4.51178 12.1759L4.98661 10.2166C4.27586 9.92697 3.6153 9.50486 3.03362 8.96862L1.73464 10.4046L0.880923 9.46128L2.1805 8.02595C1.4469 7.05512 0.95398 5.89046 0.75 4.64595L1.93736 4.40662C2.39529 7.20795 4.61314 9.33328 7.28048 9.33328C9.94721 9.33328 12.1657 7.20795 12.6236 4.40662L13.811 4.64528C13.6073 5.88996 13.1145 7.05486 12.3811 8.02595L13.68 9.46128L12.8263 10.4046L11.5273 8.96862C10.9457 9.50486 10.2851 9.92697 9.57435 10.2166L10.0492 12.1766L8.88414 12.5213L8.40871 10.5613C7.662 10.7027 6.89896 10.7027 6.15225 10.5613L5.67682 12.5213Z" fill="white"/>
</g>
<defs>
<clipPath id="clip0_1_166">
<rect width="14.48" height="16" fill="white" transform="translate(0.0400391)"/>
</clipPath>
</defs>
</svg>
