<svg width="35" height="19" viewBox="0 0 35 19" fill="none" xmlns="http://www.w3.org/2000/svg">
<path fill-rule="evenodd" clip-rule="evenodd" d="M0 0H34.0654V19H0V0Z" fill="#199D00"/>
<path fill-rule="evenodd" clip-rule="evenodd" d="M8.5854 5.38591C8.54605 5.82977 8.4989 6.61093 8.94969 6.69105C9.49496 6.73491 9.19427 5.91895 9.39166 5.77099C9.42896 5.69789 9.49776 5.69752 9.50343 5.78973V6.48182C9.49847 6.70693 9.67531 6.77321 9.81268 6.8197C9.95569 6.81046 10.0511 6.81447 10.1072 6.93085L10.1742 8.12803C10.1742 8.12803 10.5058 8.20745 10.5216 7.45465C10.5375 7.01267 10.4161 6.64269 10.4873 6.55667C10.4897 6.47218 10.6187 6.46713 10.7081 6.50832C10.8507 6.59241 10.9142 6.69628 11.1357 6.65475C11.4727 6.57705 11.6753 6.43989 11.6803 6.22339C11.6606 6.01762 11.633 5.81185 11.5265 5.60608C11.5413 5.56864 11.4614 5.47171 11.4762 5.43426C11.5368 5.51364 11.629 5.50703 11.6499 5.43426C11.5926 5.27614 11.5035 5.12462 11.3592 5.05901C11.24 4.97114 11.0655 4.9891 11.0016 5.17242C10.972 5.38365 11.0926 5.63462 11.2764 5.8392C11.3155 5.91913 11.3703 6.05195 11.3462 6.17155C11.2484 6.21827 11.1506 6.19879 11.0686 6.12639C11.0686 6.12639 10.8003 5.95806 10.8003 5.92066C10.8715 5.53932 10.8161 5.49609 10.7767 5.39025C10.7491 5.24415 10.6662 5.19732 10.5991 5.09753C10.532 5.03801 10.4412 5.03801 10.3978 5.09753C10.2792 5.26953 10.3345 5.6387 10.4202 5.8041C10.4821 5.95617 10.5767 6.05161 10.532 6.05161C10.4952 6.13756 10.4191 6.11771 10.3638 6.01851C10.2847 5.81348 10.2689 5.50755 10.2689 5.36984C10.2452 5.19903 10.2191 4.83472 10.0848 4.74217C10.0028 4.64881 9.8813 4.69434 9.83885 4.77958C9.83003 4.9491 9.8291 5.11857 9.85194 5.2748C9.94407 5.54878 9.97303 5.78973 10.0177 6.07032C10.0302 6.44616 9.75799 6.23338 9.77041 6.04705C9.83318 5.80502 9.8169 5.42406 9.7611 5.3275C9.71692 5.23094 9.66471 5.20712 9.55719 5.223C9.47181 5.21866 9.25211 5.41935 9.19041 5.75225C9.19041 5.75225 9.13781 5.92362 9.11541 6.07577C9.08525 6.2477 8.94996 6.36905 8.85504 6.05158C8.77307 5.82087 8.72268 5.25284 8.58535 5.38587L8.5854 5.38591Z" fill="white"/>
<path fill-rule="evenodd" clip-rule="evenodd" d="M10.0673 7.20722C9.58612 7.40401 9.12078 7.58759 8.64746 7.77778C8.66476 7.50851 9.32252 7.02245 9.77104 7.01562C10.063 7.02245 9.98963 7.11025 10.0673 7.20726V7.20722Z" fill="white"/>
<path fill-rule="evenodd" clip-rule="evenodd" d="M9.818 7.57906C9.06971 9.19284 11.5703 9.41768 11.8497 7.64516C11.876 7.57242 11.9815 7.49969 11.9999 7.6187C11.9419 9.2236 10.0657 9.33389 9.74689 8.82898C9.6679 8.70997 9.64412 8.44542 9.63623 8.28666C9.58876 7.97146 9.3912 8.09269 9.35958 8.40571C9.32791 8.57987 9.33585 8.62844 9.33585 8.79595C9.43596 10.0636 11.8524 9.51907 12.245 8.47188C12.4532 7.89204 12.2107 7.4644 12.324 7.46659C12.5639 7.68264 12.8984 7.49523 12.9722 7.42027C13.0039 7.38279 13.083 7.3586 13.1383 7.40706C13.3254 7.51958 13.6548 7.46655 13.7233 7.26816C13.7629 7.07415 13.7945 6.87354 13.8024 6.66636C13.6495 6.70607 13.5363 6.73245 13.5257 6.78541L13.4941 6.95733C13.481 7.01248 13.3491 7.01463 13.3439 6.94409C13.2859 6.72362 13.0461 6.69497 12.9012 7.03671C12.8036 7.10284 12.6272 7.11609 12.6087 7.01689C12.6323 6.7876 12.5217 6.75672 12.3004 6.86475C12.2292 6.4106 12.1581 5.97635 12.0869 5.52217C12.1792 5.51994 12.2635 5.57724 12.3479 5.48906C12.2555 5.24882 12.0606 4.75716 11.9525 4.72186C11.8998 4.66898 11.8549 4.70205 11.7865 4.71526C11.6706 4.74613 11.5625 4.82993 11.5967 4.99306C11.7338 5.68968 11.8234 6.22101 11.9604 6.91766C11.9815 6.99923 11.8998 7.10718 11.7944 7.09616C11.6152 6.99478 11.5705 6.78978 11.2648 6.79854C11.0434 6.80077 10.7904 7.00138 10.7588 7.19546C10.7219 7.34969 10.7087 7.5172 10.7587 7.65176C10.9143 7.80825 11.1014 7.79289 11.2648 7.7576C11.3992 7.71132 11.5098 7.59888 11.5572 7.6253C11.5889 7.6584 11.5651 8.02868 10.9248 8.31312C10.5375 8.45859 10.2291 8.49173 10.0632 8.22714C9.96038 8.06178 10.071 7.43348 9.818 7.57903V7.57906Z" fill="white"/>
<path fill-rule="evenodd" clip-rule="evenodd" d="M12.9929 5.93839C13.143 5.89208 13.8547 5.2109 13.8547 5.2109C13.8177 5.18444 13.7847 5.16459 13.7478 5.13813C13.7083 5.10948 13.7123 5.08083 13.7478 5.05214C13.9244 4.9662 13.8677 4.77768 13.7755 4.69174C13.6227 4.63437 13.4896 4.65315 13.3921 4.695C13.2682 4.79423 13.2393 4.95291 13.3368 5.05214C13.4318 5.08963 13.5266 5.17012 13.4633 5.2142C13.1721 5.47434 12.375 5.92299 12.4672 5.93839C12.4869 5.96043 12.9771 5.95932 12.9929 5.93839ZM8.69591 8.34939C8.42907 8.70504 8.40583 9.23641 8.55309 9.39483C8.63133 9.46968 8.75987 9.50245 8.85497 9.47903C9.02264 9.41817 9.096 9.13399 9.05622 9.03001C9.00024 8.95676 8.95619 8.94514 8.90031 9.00748C8.78232 9.20788 8.73335 9.07038 8.72302 8.95839C8.70492 8.74601 8.72883 8.55041 8.75637 8.39551C8.78573 8.23676 8.75593 8.2853 8.69591 8.34939ZM20.0991 7.77976C19.8411 7.31511 19.4839 6.85596 19.3703 6.67958C19.2566 6.50312 18.3987 5.46139 18.2724 5.34423C17.9936 5.06714 18.725 5.45964 18.1799 4.90946C17.972 4.76028 17.9599 4.75119 17.7874 4.62947C17.7004 4.57781 17.4879 4.48344 17.4503 4.63986C17.4314 4.7778 17.4416 4.85257 17.4693 4.96742C17.4906 5.04398 17.6239 5.17219 17.6894 5.24649C18.5599 6.22543 19.3318 7.21403 20.0761 8.457C20.1937 8.41025 20.1679 7.8575 20.0992 7.77976H20.0991Z" fill="white"/>
<path fill-rule="evenodd" clip-rule="evenodd" d="M18.9658 9.33431C18.9151 9.38195 19.0911 9.58576 19.3198 9.58554C19.7023 9.54843 20.039 9.36867 20.3508 8.89549C20.4342 8.78512 20.5807 8.54911 20.585 8.36605C20.6142 7.29266 20.5208 6.4574 20.3286 5.68156C20.3162 5.606 20.3237 5.51716 20.339 5.49453C20.3638 5.46977 20.4478 5.49464 20.4924 5.43352C20.5577 5.37767 20.3188 4.9151 20.1825 4.73694C20.1341 4.65737 20.1173 4.60423 20.0372 4.74629C19.953 4.8617 19.8964 5.06313 19.903 5.25135C20.0855 6.30833 20.1416 7.23295 20.2608 8.28994C20.2705 8.39214 20.2525 8.54069 20.1713 8.59991C19.8709 8.86235 19.4373 9.18539 18.9658 9.33431ZM24.1328 9.32874C23.8583 9.46148 23.858 9.61418 24.08 9.61971C24.4625 9.58257 24.9144 9.556 25.2261 9.16219C25.3096 9.05183 25.4087 8.75343 25.413 8.57037C25.4421 7.49698 25.3962 6.69579 25.204 5.92002C25.1917 5.84443 25.1517 5.6705 25.167 5.64782C25.1918 5.59468 25.3164 5.65361 25.361 5.59246C25.4264 5.53664 25.0382 5.11942 24.9019 4.94126C24.8536 4.86174 24.8367 4.8086 24.7567 4.95061C24.6724 5.06606 24.643 5.27317 24.6767 5.45571C24.8795 6.60343 25.0305 7.46566 25.0617 8.48291C25.0442 8.57946 25.0398 8.63153 24.9857 8.75317C24.866 8.88157 24.7334 9.04207 24.609 9.11967C24.4847 9.19722 24.2193 9.2713 24.1328 9.32878V9.32874Z" fill="white"/>
<path fill-rule="evenodd" clip-rule="evenodd" d="M24.3395 8.30016C24.3363 8.03174 24.344 7.79996 24.3335 7.59979C24.3229 7.39959 24.2806 7.23657 24.1978 7.09447C24.1194 6.9421 24.1681 6.81968 24.1313 6.65736C24.0945 6.49512 24.1036 6.25213 24.048 6.0596C24.0328 5.98442 23.9861 5.74362 24.0005 5.72054C24.0231 5.6668 24.1095 5.72221 24.1516 5.65994C24.2147 5.60234 23.9326 4.99167 23.7895 4.81729C23.7381 4.7391 23.6446 4.7659 23.5294 4.893C23.4225 4.97668 23.4622 5.16746 23.503 5.34892C23.7775 6.54722 23.9822 7.63182 23.9375 8.77252C23.9238 8.86953 24.3423 8.48325 24.3395 8.30016ZM22.3115 6.81393C22.1389 6.81129 21.7773 6.53286 21.6718 6.36973C21.6319 6.27617 21.6575 6.18489 21.6926 6.13141C21.7565 6.09664 21.8549 6.05756 21.9284 6.09504C21.9284 6.09504 22.0047 6.18425 21.9899 6.19561C22.0842 6.23339 22.1242 6.21164 22.1338 6.17958C22.1402 6.1234 22.1059 6.08992 22.1055 6.02806C22.1455 5.86033 22.3746 5.83424 22.461 5.94123C22.5241 6.00643 22.5473 6.14503 22.5569 6.23858C22.5558 6.28638 22.4633 6.23031 22.4108 6.24181C22.3582 6.25331 22.3455 6.30408 22.3415 6.34998C22.3319 6.47163 22.3147 6.66682 22.3115 6.81389V6.81393ZM19.1254 8.59777C19.173 8.23306 19.1079 7.58354 19.1035 7.36834C19.086 6.85994 18.9868 5.87795 18.9396 5.71389C18.8864 5.40466 19.0916 5.74781 19.0632 5.56805C18.9966 5.25927 18.7919 5.04993 18.5512 4.76708C18.4736 4.67505 18.4762 4.65631 18.3564 4.78965C18.2238 5.04125 18.3382 5.21436 18.3725 5.41034C18.5461 6.04884 18.6474 6.63632 18.6945 7.21708C18.7417 7.79784 18.7562 8.42581 18.7131 9.03748C18.8432 9.04175 19.0523 8.86144 19.1254 8.59774V8.59777Z" fill="white"/>
<path fill-rule="evenodd" clip-rule="evenodd" d="M24.9281 8.01334C24.6237 7.58602 24.1643 7.12319 24.0416 6.95112C23.9189 6.779 22.881 5.6586 22.7487 5.54616C22.369 5.21243 22.9228 5.49183 22.676 5.23407C22.4672 5.04229 22.4063 4.98209 22.2277 4.86676C22.1381 4.81833 22.0838 4.72582 22.0543 4.88346C22.0426 5.02195 22.0304 5.18219 22.0415 5.2989C22.0409 5.3638 22.1216 5.48571 22.191 5.55755C23.1116 6.50384 24.1157 7.47005 24.9241 8.68476C25.0391 8.63373 25.0008 8.08852 24.9281 8.01334Z" fill="white"/>
<path fill-rule="evenodd" clip-rule="evenodd" d="M11.1152 7.22477C11.0933 7.25691 11.0445 7.29855 11.0609 7.34163C11.0951 7.38037 11.1224 7.38824 11.1793 7.39036C11.2288 7.39036 11.2978 7.40012 11.3126 7.37574C11.3392 7.35124 11.3594 7.30118 11.3373 7.25398C11.2858 7.14636 11.1421 7.18644 11.1152 7.22477Z" fill="#1BA400"/>
<path fill-rule="evenodd" clip-rule="evenodd" d="M21.3871 13.4538C21.7942 13.4663 22.0607 13.4693 22.4228 13.5053C22.4228 13.5053 22.735 13.4796 22.8465 13.4655C23.3178 13.4278 23.3387 14.0286 23.3387 14.0286C23.3335 14.381 23.171 14.3994 22.9634 14.4366C22.8449 14.4493 22.7825 14.3772 22.7202 14.3005C22.642 14.3279 22.5357 14.3318 22.4069 14.3169C22.2372 14.308 22.0676 14.3086 21.8979 14.2997C21.7177 14.2864 21.6219 14.3154 21.4416 14.3021C21.4045 14.3509 21.3562 14.4185 21.246 14.3967C21.1543 14.3883 21.0456 14.1729 21.0776 14.0091C21.1439 13.8917 21.1257 13.9295 21.1187 13.8778C19.4543 13.8424 17.7739 13.7803 16.1411 13.7981C14.8637 13.8025 13.602 13.8468 12.3404 13.8912C11.6672 13.8823 11.153 13.7936 10.7979 13.359C10.8297 13.359 12.5153 13.4388 13.0083 13.4122C13.9201 13.4033 14.7523 13.3412 15.6799 13.3191C17.5087 13.3457 19.3217 13.3457 21.1504 13.4521C20.9754 13.352 20.9692 13.1155 21.2384 13.0577C21.2613 13.0445 21.2731 13.1753 21.3134 13.1728C21.5288 13.1593 21.4343 13.4034 21.387 13.4537L21.3871 13.4538ZM14.0449 5.02029C13.7678 5.68302 14.2037 6.40795 14.5059 6.33737C14.724 6.41289 14.8628 6.06584 14.9521 5.68562C15.0132 5.57889 15.0593 5.56754 15.0907 5.62239C15.0826 6.128 15.1341 6.24 15.2895 6.39348C15.6361 6.61721 15.9228 6.42206 15.9453 6.4032L16.2151 6.17743C16.2752 6.12455 16.3552 6.12147 16.44 6.16804C16.5225 6.23076 16.5109 6.33904 16.6874 6.41415C16.836 6.46388 17.1536 6.42565 17.2272 6.31856C17.3262 6.17658 17.35 6.12781 17.3959 6.07397C17.4665 5.99526 17.587 6.03025 17.587 6.05512C17.5758 6.09902 17.5051 6.14296 17.5533 6.222C17.6373 6.27473 17.6568 6.24081 17.7065 6.22909C17.8823 6.15876 18.0143 5.83877 18.0143 5.83877C18.0221 5.71972 17.9424 5.72956 17.8906 5.75409C17.8232 5.7886 17.8188 5.79962 17.7513 5.83413C17.6653 5.84482 17.4985 5.8925 17.4161 5.7857C17.3319 5.65727 17.3307 5.47807 17.2664 5.34856C17.2664 5.33913 17.1547 5.14453 17.2587 5.13206C17.3111 5.14022 17.423 5.16501 17.4408 5.08615C17.4959 5.00926 17.323 4.79158 17.2047 4.68163C17.102 4.58729 16.9597 4.57594 16.8224 4.67224C16.7262 4.74627 16.7401 4.82899 16.7212 4.9074C16.6967 4.99743 16.7019 5.1082 16.8112 5.22728C16.9071 5.38563 17.0823 5.58958 17.0248 5.87636C17.0248 5.87636 16.9225 6.01192 16.7442 5.99418C16.6699 5.98064 16.5494 5.95425 16.485 5.55652C16.4363 5.25548 16.4965 4.83426 16.3438 4.6368C16.2886 4.51756 16.2484 4.40241 16.1139 4.60637C16.0778 4.68645 15.9228 4.80798 16.0352 5.05795C16.1272 5.21641 16.1647 5.47432 16.1229 5.76132C16.0592 5.84285 16.045 5.87046 15.9615 5.95203C15.8441 6.0576 15.7167 6.03066 15.6192 5.99122C15.528 5.93982 15.4567 5.91325 15.415 5.74997C15.4226 5.48972 15.4399 5.06367 15.383 4.97331C15.2992 4.83333 15.161 4.88395 15.1019 4.92625C14.8181 5.1433 14.678 5.50954 14.5923 5.80118C14.5136 6.0137 14.4299 5.95281 14.371 5.86705C14.2277 5.75468 14.2179 4.87586 14.0449 5.02036V5.02029Z" fill="white"/>
<path fill-rule="evenodd" clip-rule="evenodd" d="M14.879 6.4604C15.0049 6.38581 14.9461 6.33371 15.1343 6.49112C15.3699 6.82815 15.5214 7.26467 15.5441 7.65139C15.5341 7.74668 15.6144 7.80698 15.6511 7.78628C15.673 7.56254 16.3233 7.25083 16.9195 7.20526C17.0107 7.18867 16.9664 7.04246 16.9812 6.9679C16.9455 6.69096 17.1673 6.4388 17.4781 6.41869C17.9012 6.47101 18.042 6.65997 18.0492 6.94842C18.0035 7.50217 17.314 7.59606 16.9266 7.64022C16.8671 7.65903 16.8424 7.68196 16.9266 7.70909L18.5498 7.71525L18.6326 7.75525C18.6425 7.78765 18.6089 7.76063 18.5448 7.84892C18.4808 7.9372 18.3863 8.14078 18.3814 8.27672C17.8978 8.40682 17.3976 8.46382 16.8892 8.51525C16.7125 8.58999 16.625 8.68956 16.6613 8.80163C16.7207 8.92594 17.1119 9.05011 17.1119 9.05601C17.1862 9.09498 17.2741 9.18597 17.0909 9.37237C16.2991 9.34324 15.6856 9.06132 15.4731 8.66343C15.4091 8.62191 15.3402 8.66321 15.296 8.71698C14.9869 9.05037 14.6828 9.35059 14.1557 9.50997C13.8414 9.57565 13.5197 9.46963 13.3677 9.29745C13.266 9.19944 13.2699 9.09123 13.2325 9.06778C13.0627 9.13064 11.6009 9.65028 11.7862 9.40822C12.1419 9.08963 12.7578 8.85566 13.3018 8.54123C13.341 8.43588 13.4124 8.07952 13.6272 7.96344C13.6396 7.96429 13.5932 8.17273 13.5979 8.26061C13.6003 8.33275 13.5915 8.36103 13.6104 8.34247C13.6471 8.32288 14.3071 7.889 14.3581 7.75596C14.4224 7.67966 14.3774 7.48643 14.3774 7.48057C14.2537 7.21368 14.08 7.19101 14.0156 7.05841C13.9577 6.88226 13.9839 6.6812 14.1043 6.62516C14.2112 6.544 14.3377 6.55402 14.4545 6.64272C14.5878 6.74261 14.7062 6.93785 14.7404 7.08328C14.7175 7.1408 14.566 7.04505 14.5134 7.07363C14.6065 7.15423 14.6499 7.24723 14.6835 7.361C14.7695 7.66564 14.7433 7.78405 14.6567 7.98103C14.3637 8.49648 13.9892 8.6503 13.6616 8.84126C13.6528 8.84386 13.647 8.97207 13.7702 9.04139C13.8127 9.07872 13.9836 9.09787 14.1846 9.04399C14.5729 8.86683 14.976 8.54045 15.1762 8.17685C15.2343 7.90184 15.1537 7.61019 15.0682 7.35585C14.9394 7.10729 14.7878 6.75237 14.7878 6.74651C14.7828 6.5915 14.7979 6.53773 14.8791 6.4604H14.879ZM10.6293 5.02686C10.8161 5.10141 11.1674 5.06969 11.1525 4.81764C11.1525 4.79537 11.1457 4.71997 11.1431 4.69952C11.1049 4.62523 11.0009 4.6436 10.9773 4.7203C10.9699 4.74542 10.9905 4.78636 10.9633 4.79897C10.9477 4.81215 10.888 4.80439 10.8905 4.73477C10.8905 4.71258 10.871 4.68876 10.8592 4.67466C10.8474 4.6682 10.8399 4.66642 10.8185 4.66642C10.7924 4.66727 10.7929 4.67295 10.7786 4.69128C10.7725 4.70991 10.7642 4.72813 10.7642 4.74928C10.7609 4.77407 10.7497 4.7829 10.7279 4.78658C10.7036 4.78658 10.7091 4.78881 10.6893 4.7783C10.6776 4.76754 10.663 4.76346 10.663 4.74516C10.663 4.7262 10.6578 4.69551 10.651 4.68301C10.6407 4.67158 10.624 4.66631 10.6053 4.66226C10.5033 4.66256 10.4962 4.75993 10.5021 4.79689C10.4944 4.80387 10.4901 4.97855 10.6293 5.02686Z" fill="white"/>
<path fill-rule="evenodd" clip-rule="evenodd" d="M16.1068 6.96656C16.2937 7.04112 16.7384 6.99822 16.63 6.75734C16.63 6.73507 16.6233 6.65963 16.6206 6.63922C16.5825 6.56493 16.4784 6.5833 16.4548 6.66C16.4474 6.68513 16.4681 6.72606 16.4409 6.73867C16.4253 6.75185 16.3656 6.74409 16.368 6.67447C16.368 6.65228 16.3485 6.62846 16.3367 6.61436C16.3249 6.6079 16.3174 6.60612 16.296 6.60612C16.27 6.60697 16.2704 6.61265 16.2561 6.63098C16.25 6.64961 16.2417 6.66783 16.2417 6.68898C16.2384 6.71377 16.2272 6.72261 16.2055 6.72628C16.1811 6.72628 16.1866 6.72851 16.1669 6.718C16.1552 6.70724 16.1405 6.70316 16.1405 6.68487C16.1405 6.6659 16.1354 6.63521 16.1286 6.62271C16.1182 6.61128 16.1016 6.60601 16.0829 6.60196C15.9809 6.60226 15.9738 6.69964 15.9797 6.7366C15.972 6.74357 15.9677 6.91825 16.1068 6.96656ZM19.3005 6.16389C19.4873 6.23844 19.8385 6.20671 19.8237 5.95466C19.8237 5.9324 19.8169 5.85699 19.8142 5.83655C19.7761 5.76225 19.6721 5.78062 19.6485 5.85733C19.6411 5.88245 19.6617 5.92338 19.6345 5.936C19.6189 5.94917 19.5592 5.94142 19.5617 5.8718C19.5617 5.84961 19.5422 5.82578 19.5304 5.81168C19.5186 5.80522 19.5111 5.80344 19.4897 5.80344C19.4636 5.8043 19.464 5.80998 19.4498 5.82831C19.4437 5.84694 19.4353 5.86516 19.4353 5.88631C19.4321 5.9111 19.4209 5.91993 19.3991 5.9236C19.3748 5.9236 19.3803 5.92583 19.3605 5.91533C19.3488 5.90457 19.3341 5.90049 19.3341 5.88219C19.3341 5.86323 19.329 5.83254 19.3222 5.82003C19.3119 5.8086 19.2952 5.80333 19.2765 5.79929C19.1745 5.79958 19.1674 5.89696 19.1733 5.93392C19.1656 5.9409 19.1613 6.11557 19.3005 6.16389ZM20.9545 8.18004C20.6289 8.48705 20.7725 8.99478 20.846 9.10417C20.9533 9.28386 21.0398 9.39908 21.2487 9.48796C21.439 9.60511 21.5872 9.5319 21.6689 9.44985C21.8604 9.28386 21.8626 8.86003 21.9525 8.77605C22.0156 8.62179 22.1743 8.64814 22.2513 8.71649C22.326 8.8063 22.4139 8.86419 22.5237 8.9131C22.7022 9.04491 22.9155 9.06896 23.1256 8.94887C23.2691 8.88148 23.3624 8.79442 23.4465 8.6216C23.5399 8.41268 23.4878 7.44717 23.4692 6.87494C23.462 6.83004 23.2836 6.08804 23.2836 6.07976C23.2836 6.07145 23.26 5.70106 23.2404 5.61281C23.2369 5.577 23.2263 5.56672 23.2712 5.57125C23.3188 5.60476 23.3253 5.60688 23.355 5.6179C23.403 5.62524 23.446 5.55685 23.417 5.49395L22.9713 4.8062C22.9355 4.77674 22.8893 4.74438 22.8326 4.81452C22.7784 4.85426 22.7207 4.92622 22.7225 5.01873C22.7357 5.18171 22.7699 5.34752 22.7831 5.51054L22.9614 6.34743C23.0175 6.944 23.0316 7.43225 23.0877 8.02882C23.0799 8.28142 22.986 8.50167 22.898 8.53343C22.898 8.53343 22.764 8.59837 22.6742 8.52664C22.6088 8.50471 22.3474 8.16204 22.3474 8.16204C22.2137 8.05951 22.1255 8.08882 22.0304 8.16204C21.7681 8.37397 21.6494 8.77041 21.4711 9.04387C21.4252 9.10492 21.2952 9.15713 21.1513 9.03942C20.7857 8.62164 21 8.02719 20.9545 8.18004ZM19.3843 4.70066C19.5516 4.7593 19.6697 5.04292 19.6312 5.18142C19.5979 5.35275 19.5092 5.53778 19.4453 5.51369C19.376 5.49217 19.4926 5.34336 19.4259 5.18728C19.3889 5.08567 19.1605 4.90002 19.1846 4.84528C19.1374 4.73061 19.2817 4.68044 19.3843 4.70066Z" fill="white"/>
<path fill-rule="evenodd" clip-rule="evenodd" d="M21.4923 8.34835C21.5276 8.00772 21.4681 7.80002 21.4576 7.59981C21.447 7.39961 21.1869 5.87204 21.1342 5.72056C21.0705 5.43415 21.387 5.68215 21.3524 5.51557C21.2429 5.30553 20.9705 4.99975 20.8849 4.81732C20.8334 4.73916 20.855 4.66962 20.7398 4.79676C20.633 5.08903 20.5959 5.32794 20.6367 5.50944C20.9111 6.7077 21.1926 7.70409 21.1479 8.8448C21.2781 8.84554 21.4281 8.59564 21.4923 8.34838V8.34835ZM24.352 5.18366C24.5046 5.24712 24.5939 5.60259 24.5771 5.70416C24.5468 5.88966 24.4658 6.08998 24.4076 6.06389C24.3444 6.04059 24.4203 5.7888 24.3899 5.7105C24.3562 5.60051 24.148 5.39952 24.1699 5.34026C24.1269 5.21613 24.2584 5.1618 24.352 5.18366ZM13.0115 7.70413C13.1574 7.75074 13.243 8.01195 13.2269 8.08661C13.1978 8.22288 13.1203 8.37009 13.0647 8.35094C13.0042 8.3338 13.0769 8.14877 13.0478 8.09125C13.0355 7.95172 12.8329 7.87947 12.8371 7.8192C12.7993 7.7084 12.9219 7.68802 13.0115 7.70417V7.70413Z" fill="white"/>
<path fill-rule="evenodd" clip-rule="evenodd" d="M16.5391 8.09624C16.7274 8.10626 16.8216 8.22991 16.6451 8.28179C16.4711 8.33163 16.3038 8.37059 16.303 8.58104C16.3674 8.87428 16.2147 8.77364 16.1236 8.73382C16.0163 8.66936 15.7152 8.51413 15.6723 8.17903C15.6658 8.09906 15.7403 8.03175 15.8603 8.03223C16.0411 8.07331 16.3077 8.07631 16.539 8.09624H16.5391Z" fill="#1B9D00"/>
<path fill-rule="evenodd" clip-rule="evenodd" d="M9.11133 4.61621C9.32668 4.67054 9.33941 4.93535 9.32353 5.01276C9.29483 5.15407 9.21854 5.30667 9.16376 5.28678C9.10415 5.26904 9.16141 5.07722 9.1328 5.01755C9.10086 4.93376 8.91891 4.78064 8.93954 4.73552C8.89904 4.64093 9.02306 4.59951 9.11133 4.61621ZM13.3642 5.86457C13.199 5.93935 13.1349 6.16219 13.2378 6.292C13.3339 6.40629 13.4856 6.36391 13.5059 6.36391C13.6678 6.38087 13.7638 6.11001 13.7638 6.11001C13.7638 6.11001 13.7689 6.03386 13.5767 6.17777C13.4957 6.19046 13.4856 6.16505 13.4654 6.12693C13.4486 6.05643 13.4519 5.98592 13.4907 5.91537C13.5193 5.84769 13.4569 5.81804 13.3642 5.86457ZM14.6035 4.51379C14.5205 4.56036 14.3552 4.7036 14.3502 4.86867C14.3452 4.96177 14.3245 4.96148 14.3973 5.02074C14.4499 5.08427 14.503 5.07856 14.6093 5.03198C14.6703 4.99436 14.691 4.96938 14.7115 4.90629C14.7368 4.80053 14.5779 4.95647 14.5576 4.83876C14.5222 4.72943 14.6243 4.68468 14.7204 4.57892C14.7236 4.50644 14.7217 4.45512 14.6035 4.51379ZM15.602 4.66223C15.5662 4.72836 15.5233 5.07388 15.5304 5.07388C15.5019 5.17682 15.6592 5.22087 15.7308 5.08854C15.8381 4.84595 15.8381 4.74305 15.8452 4.64011C15.8118 4.48336 15.6855 4.48826 15.602 4.66223ZM21.897 7.34227C21.9185 7.3243 22.784 6.80963 22.784 6.80963C22.8723 6.7837 22.8531 7.07497 22.8126 7.07296C22.8293 7.13078 21.959 7.62552 21.897 7.60559C21.8541 7.63153 21.8111 7.40613 21.897 7.34227H21.897ZM22.6861 7.33781C22.8387 7.40127 22.8994 7.7747 22.8826 7.87627C22.888 8.07377 22.7356 8.23215 22.6774 8.2061C22.6141 8.18279 22.6829 7.96092 22.6525 7.88261C22.6188 7.77262 22.4892 7.56563 22.5111 7.50636C22.4681 7.38223 22.5925 7.31595 22.6861 7.33781ZM17.5377 8.94613C17.5979 8.87251 17.7839 8.76656 17.7881 8.76656C17.8739 8.73064 17.9577 8.79473 17.9526 8.7905C17.9669 8.86234 17.8983 8.92917 17.9198 9.02495C17.9385 9.06355 17.9523 9.10641 18.0368 9.09008C18.1743 8.99961 18.3016 8.99378 18.4391 8.98803C18.5444 8.99334 18.5485 9.14252 18.4819 9.14363C18.2282 9.18976 18.1145 9.24661 17.9333 9.30446C17.8474 9.34636 17.7738 9.29322 17.7738 9.28724C17.7738 9.28127 17.7235 9.2465 17.7586 9.15135C17.7648 9.07505 17.7281 9.03323 17.6521 9.04187C17.5949 9.06778 17.5445 9.08492 17.5159 9.02989C17.5046 8.98925 17.501 8.96947 17.5377 8.94613ZM23.5967 9.14727C23.6338 9.18675 23.6578 9.2233 23.5938 9.28817C23.533 9.33471 23.4903 9.36035 23.4296 9.40688C23.4009 9.44778 23.3826 9.50982 23.4703 9.5296C23.6322 9.56768 24.0064 9.36454 24.0064 9.36031C24.0672 9.32224 24.0469 9.25028 24.0418 9.25028C24.0064 9.21644 23.9267 9.23655 23.8731 9.23106C23.8475 9.23106 23.7637 9.22045 23.8036 9.1584C23.8369 9.1198 23.8488 9.09617 23.8714 9.04859C23.8967 9.00206 23.8749 8.97103 23.7839 8.94561C23.6912 8.93151 23.6541 8.93856 23.5512 8.94561C23.4956 8.95548 23.4766 8.9763 23.4665 9.03271C23.4705 9.11828 23.5327 9.11342 23.5967 9.14727Z" fill="white"/>
<path fill-rule="evenodd" clip-rule="evenodd" d="M17.5708 7.04121C17.5471 7.07553 17.4669 7.07386 17.3916 7.0375C17.3164 7.00113 17.2746 6.94372 17.2984 6.90936C17.3221 6.875 17.4023 6.8767 17.4776 6.91314C17.5528 6.94959 17.5946 7.00688 17.5708 7.04121ZM13.62 5.05237C13.575 5.06157 13.5162 5.02803 13.4887 4.97745C13.4611 4.92686 13.4753 4.8784 13.5202 4.8692C13.5652 4.85999 13.624 4.8935 13.6515 4.94408C13.6791 4.99466 13.6649 5.04317 13.62 5.05237Z" fill="#259F00"/>
<path fill-rule="evenodd" clip-rule="evenodd" d="M21.4352 13.9146C21.85 13.9315 22.2397 13.9185 22.6544 13.9354C22.7296 13.9889 22.6759 14.1201 22.6258 14.1107C22.491 14.1078 22.4133 14.105 22.2784 14.1022C22.2738 13.9917 21.9366 14.0098 21.9463 14.1057C21.7642 14.124 21.6 14.1004 21.4179 14.0948C21.3641 14.0387 21.371 13.9377 21.4352 13.9146H21.4352Z" fill="#209000"/>
</svg>
