<svg width="21" height="22" viewBox="0 0 21 22" fill="none" xmlns="http://www.w3.org/2000/svg">
<path fill-rule="evenodd" clip-rule="evenodd" d="M0 2.96484C0 1.86027 0.895431 0.964844 2 0.964844H19C20.1046 0.964844 21 1.86027 21 2.96484V19.4961C21 20.6007 20.1046 21.4961 19 21.4961H2C0.89543 21.4961 0 20.6007 0 19.4961V2.96484Z" fill="#199D00"/>
<path fill-rule="evenodd" clip-rule="evenodd" d="M5.29205 6.78448C5.29206 6.78448 5.29206 6.78449 5.29206 6.78451C5.27197 7.18174 5.24859 7.82895 5.399 8.0888C5.45312 8.18227 5.59562 8.22225 5.6569 8.13331C5.76223 7.98044 5.72521 7.58683 5.74767 7.35468C5.75794 7.2486 5.85425 7.11435 5.85799 7.22086V7.96873C5.85656 8.08254 5.87967 8.15878 5.91334 8.21284C5.97627 8.31389 6.13099 8.28007 6.19809 8.37841C6.22234 8.41394 6.23086 8.47566 6.23224 8.51866L6.24557 8.93596C6.26138 9.43049 6.47975 9.5147 6.48567 9.01995C6.49213 8.70414 6.46159 8.42234 6.45285 8.24079C6.44673 8.1138 6.50174 7.91749 6.60065 7.99736C6.68853 8.08822 6.72766 8.20046 6.86422 8.15559C7.07197 8.07162 7.19688 7.92341 7.19994 7.68947C7.18806 7.47189 7.17152 7.2543 7.10928 7.03672C7.10659 7.02733 7.10655 7.01738 7.1062 7.00761C7.10609 7.00442 7.10581 7.00105 7.10538 6.99751C7.09915 6.94582 7.16586 6.90003 7.17858 6.84953C7.18019 6.84313 7.18053 6.83342 7.17917 6.82696C7.15997 6.73627 7.13517 6.64806 7.10259 6.57522C7.05452 6.46774 6.93688 6.32138 6.85067 6.40157C6.82149 6.42871 6.79655 6.47827 6.78153 6.55379C6.76508 6.75968 6.82396 7.0005 6.91883 7.20797C6.93923 7.25256 6.95822 7.29794 6.96926 7.34571C6.9774 7.38092 6.98509 7.42024 6.99041 7.46131C7.00464 7.57121 6.92465 7.70126 6.84961 7.61972C6.83354 7.60227 6.81486 7.57592 6.79921 7.5581C6.7535 7.50608 6.65747 7.39313 6.65747 7.36233C6.70136 6.95026 6.66721 6.90355 6.6429 6.78918C6.63506 6.71647 6.62 6.66651 6.60199 6.62324C6.55976 6.52175 6.45155 6.37137 6.40935 6.47287C6.33624 6.65873 6.37033 7.05765 6.42314 7.23638C6.43025 7.26702 6.43807 7.29553 6.4459 7.32164C6.47869 7.43102 6.42299 7.57688 6.38835 7.46808C6.33963 7.24652 6.32987 6.91594 6.32987 6.76713C6.31837 6.62185 6.30597 6.34707 6.26083 6.18786C6.24102 6.118 6.20416 6.01326 6.13501 6.03542C6.05984 6.05952 6.06326 6.1692 6.06202 6.24812C6.05977 6.3911 6.0618 6.53216 6.07283 6.66443C6.12963 6.96049 6.14748 7.22086 6.17505 7.52406C6.1827 7.93019 6.01492 7.70026 6.02258 7.49891C6.06127 7.23738 6.05123 6.82571 6.01683 6.72137C5.98406 6.59581 5.82704 6.63923 5.77288 6.75715C5.73339 6.84312 5.69527 6.96386 5.67352 7.11282C5.66696 7.1577 5.66105 7.2027 5.65406 7.24752C5.64334 7.31621 5.62743 7.42714 5.61879 7.52995C5.6002 7.71573 5.5168 7.84686 5.45828 7.5038C5.40776 7.25452 5.37669 6.64078 5.29205 6.78442C5.29204 6.78443 5.29204 6.78446 5.29205 6.78448Z" fill="white"/>
<path fill-rule="evenodd" clip-rule="evenodd" d="M6.20535 8.7527C6.20535 8.7527 6.20535 8.7527 6.20534 8.7527C6.0605 8.85654 5.91798 8.95697 5.77608 9.0565C5.59319 9.18477 5.41684 9.05712 5.55347 8.88039C5.69435 8.69817 5.87656 8.54955 6.02272 8.54565C6.20268 8.55303 6.15748 8.64789 6.20534 8.75271C6.20534 8.75271 6.20535 8.75271 6.20535 8.7527Z" fill="white"/>
<path fill-rule="evenodd" clip-rule="evenodd" d="M6.05266 9.15492C6.05266 9.15493 6.05265 9.15493 6.05265 9.15494C5.59137 10.8988 7.13287 11.1417 7.30514 9.22635C7.32135 9.14775 7.38635 9.06916 7.39772 9.19776C7.36198 10.932 6.20537 11.0512 6.00882 10.5056C5.96012 10.377 5.94547 10.0911 5.9406 9.91956C5.91134 9.57895 5.78955 9.70996 5.77006 10.0482C5.75053 10.2364 5.75543 10.2889 5.75543 10.4699C5.81714 11.8397 7.3068 11.2513 7.54882 10.1197C7.59467 9.89587 7.60506 9.69302 7.60266 9.52484C7.59819 9.21136 7.84358 9.25668 7.99712 8.98334C8.03518 8.9044 8.12691 9.01708 8.2136 9.02992C8.31742 9.04529 8.42994 8.97231 8.46014 8.81897C8.47637 8.67943 8.49044 8.53674 8.49946 8.39089C8.50582 8.2881 8.34996 8.19499 8.33832 8.29731L8.31882 8.48309C8.31073 8.54268 8.22944 8.54501 8.22624 8.46878C8.1974 8.27653 8.09557 8.21926 8.01037 8.39837C7.95954 8.50525 7.87851 8.6902 7.79641 8.60495C7.78695 8.59512 7.7797 8.58151 7.77564 8.56368C7.77323 8.55304 7.77399 8.52905 7.77436 8.51815C7.77986 8.35702 7.56296 8.1604 7.54836 7.99984C7.5201 7.68908 7.49186 7.38255 7.46359 7.06875C7.4569 6.99443 7.50529 6.9782 7.57112 6.94307C7.59893 6.92823 7.60855 6.87962 7.60174 6.84884C7.55716 6.64745 7.48505 6.33522 7.42514 6.17237C7.39786 6.09821 7.34102 6.03498 7.26617 6.06033C7.19469 6.09369 7.12808 6.18423 7.14917 6.36051C7.23366 7.11327 7.28889 7.68743 7.37339 8.44023C7.39657 8.5979 7.2245 8.56244 7.13775 8.42875C7.09337 8.36035 7.03929 8.30675 6.94455 8.3115C6.80808 8.31391 6.65208 8.53069 6.63264 8.74042C6.62104 8.82545 6.61323 8.91423 6.61246 9.00011C6.61108 9.15565 6.65531 9.35738 6.81015 9.37214C6.82614 9.37366 6.84212 9.37314 6.85799 9.37112C6.91726 9.36358 6.98963 9.31618 7.03064 9.27272C7.09823 9.2011 7.13749 9.25538 7.11885 9.35208C7.08947 9.50448 6.99415 9.74631 6.73494 9.94815C6.49617 10.1053 6.30608 10.1412 6.20378 9.85524C6.14043 9.67656 6.20864 8.99769 6.05268 9.15487C6.05267 9.15488 6.05266 9.1549 6.05266 9.15492Z" fill="white"/>
<path fill-rule="evenodd" clip-rule="evenodd" d="Mnan nanL8.00935 7.38202C8.08206 7.34271 8.36822 6.88029 8.48773 6.68358C8.51977 6.63083 8.51319 6.56555 8.47476 6.51726C8.43327 6.46459 8.50782 6.40452 8.53001 6.34125C8.54784 6.29043 8.54903 6.23125 8.54035 6.17598C8.525 6.07834 8.43654 5.98006 8.33961 5.99935C8.27202 6.0128 8.23113 6.06576 8.20874 6.13094C8.19892 6.15956 8.19209 6.18966 8.18846 6.21993C8.17198 6.35737 8.38704 6.49238 8.29933 6.59946C8.16288 6.81319 7.84609 7.14468 7.72707 7.29862C7.68834 7.34872 7.71866 7.39525 7.78193 7.39809C7.87522 7.40228 8.00309 7.3966 8.00935 7.38202Lnan nanZM5.36045 9.98732C5.19595 10.3716 5.18162 10.9458 5.2724 11.117C5.28432 11.137 5.29814 11.1542 5.31307 11.1684C5.39001 11.2416 5.50771 11.1759 5.54285 11.0757C5.57193 10.9928 5.58769 10.8897 5.589 10.8098C5.58996 10.7516 5.58623 10.653 5.52808 10.6548C5.48403 10.6562 5.48104 10.7203 5.46252 10.7603C5.40694 10.8804 5.38278 10.7522 5.37715 10.6454C5.366 10.4159 5.38074 10.2045 5.39772 10.0372C5.41582 9.86562 5.39744 9.91807 5.36045 9.98732ZM12.3901 9.37178C12.3901 9.37178 12.3901 9.37178 12.3901 9.37177C12.231 8.86968 12.0108 8.37353 11.9408 8.18294C11.8707 7.99226 11.3418 6.86657 11.264 6.73997C11.1079 6.46803 11.4655 6.79293 11.2807 6.40946C11.2352 6.31505 11.1742 6.22891 11.109 6.14689C11.0621 6.08798 11.035 6.05412 10.965 5.96761C10.9114 5.91179 10.7804 5.80981 10.7572 5.97883C10.7455 6.12789 10.7518 6.20869 10.7689 6.3328C10.782 6.41552 10.8642 6.55407 10.9046 6.63435C11.3758 7.56328 11.8002 8.50025 12.2073 9.62434C12.294 9.86357 12.4353 9.85829 12.4223 9.60419C12.4166 9.49405 12.405 9.4013 12.3901 9.37179C12.3901 9.37179 12.3901 9.37178 12.3901 9.37178Z" fill="white"/>
<path fill-rule="evenodd" clip-rule="evenodd" d="Mnan nanL11.6919 11.0518C11.6629 11.0996 11.7545 11.2932 11.8807 11.3201C11.9 11.3243 11.92 11.3219 11.9392 11.3175C12.1631 11.2666 12.3615 11.0678 12.5457 10.5776C12.5971 10.4583 12.6875 10.2033 12.6901 10.0055C12.7081 8.84559 12.6505 7.94302 12.532 7.10465C12.5272 7.05322 12.5273 6.99609 12.5303 6.95474C12.533 6.91957 12.5399 6.89358 12.5743 6.88597C12.6187 6.87616 12.6424 6.81488 12.6384 6.76965C12.6242 6.61244 12.5114 6.2431 12.442 6.0839C12.4122 5.99792 12.4018 5.9405 12.3524 6.094C12.3005 6.21871 12.2656 6.43638 12.2697 6.63977C12.3822 7.78194 12.4167 8.78107 12.4902 9.92324C12.4963 10.0337 12.4851 10.1942 12.4351 10.2582C12.2499 10.5418 11.9826 10.8909 11.6919 11.0518Lnan nanZM14.8772 11.0458C14.8772 11.0458 14.8772 11.0458 14.8772 11.0458C14.7165 11.182 14.7082 11.3377 14.825 11.3581C14.8379 11.3604 14.8511 11.3591 14.8639 11.3569C15.0955 11.3182 15.3643 11.2798 15.5512 10.8658C15.6026 10.7465 15.6637 10.4241 15.6663 10.2263C15.6843 9.06638 15.656 8.20062 15.5375 7.36233C15.5299 7.28065 15.5053 7.0927 15.5147 7.0682C15.5398 6.97405 15.6413 6.95863 15.6073 6.86735C15.5457 6.70205 15.4103 6.43978 15.3513 6.30469C15.3215 6.21875 15.3111 6.16133 15.2618 6.31479C15.2098 6.43955 15.1917 6.66334 15.2125 6.8606C15.3375 8.10081 15.4306 9.03254 15.4498 10.1318C15.4478 10.1513 15.446 10.1692 15.4443 10.1862C15.4283 10.3458 15.3678 10.4969 15.2906 10.6376C15.2505 10.7107 15.2099 10.777 15.1707 10.8198C15.0941 10.9036 14.9306 10.9837 14.8772 11.0458C14.8772 11.0458 14.8772 11.0458 14.8772 11.0458Z" fill="white"/>
<path fill-rule="evenodd" clip-rule="evenodd" d="Mnan nanL15.0032 9.93357C15.0013 9.64353 15.006 9.39306 14.9995 9.17676C14.993 8.96042 14.9669 8.78426 14.9159 8.63072C14.8676 8.46607 14.8975 8.33378 14.8749 8.15838C14.8522 7.98306 14.8578 7.72049 14.8235 7.51245C14.8141 7.4312 14.7853 7.17099 14.7942 7.14605C14.8136 7.0653 14.8968 7.03929 14.8843 6.95719C14.8513 6.74157 14.7322 6.31542 14.6642 6.17002C14.6474 6.12542 14.6235 6.11243 14.5941 6.13029C14.5072 6.18324 14.4696 6.2956 14.463 6.39715C14.4565 6.49664 14.4719 6.62251 14.4875 6.74449C14.6567 8.03936 14.7829 9.21137 14.7554 10.444C14.7469 10.5488 15.005 10.1314 15.0032 9.93357Lnan nanZM13.753 8.32752C13.753 8.32754 13.753 8.32756 13.753 8.32756C13.6466 8.32464 13.4237 8.02382 13.3587 7.84756C13.344 7.78705 13.3437 7.72742 13.3505 7.6769C13.3584 7.61849 13.3897 7.56013 13.445 7.53995C13.4642 7.53299 13.4836 7.53161 13.5014 7.54027C13.5126 7.54566 13.5148 7.54629 13.5201 7.55745C13.543 7.60588 13.6161 7.70821 13.6383 7.65948C13.6407 7.65426 13.6424 7.64836 13.6435 7.64209C13.6474 7.58138 13.6263 7.54521 13.626 7.47836C13.6507 7.29711 13.792 7.26892 13.8452 7.38453C13.8841 7.45498 13.8984 7.60476 13.9043 7.70585C13.9037 7.7575 13.8466 7.69691 13.8142 7.70934C13.7818 7.72177 13.774 7.77663 13.7715 7.82623C13.7656 7.95768 13.755 8.1686 13.753 8.32752ZM11.7889 10.2552C11.8183 9.86107 11.7781 9.1592 11.7754 8.92666C11.7647 8.37729 11.7035 7.31616 11.6744 7.13887C11.6416 6.80472 11.7681 7.17553 11.7506 6.98128C11.7095 6.64761 11.5833 6.4214 11.435 6.11576C11.4281 6.10153 11.4223 6.08891 11.4171 6.07817C11.3644 5.96911 11.2908 6.19792 11.2799 6.31856C11.2635 6.50097 11.3086 6.64867 11.3248 6.81086C11.4318 7.50082 11.4942 8.13564 11.5233 8.76321C11.5518 9.37798 11.5609 10.0417 11.5363 10.6899C11.5355 10.7123 11.5536 10.7307 11.5732 10.7196C11.6513 10.6752 11.7505 10.4979 11.7889 10.2552C11.7889 10.2552 11.7889 10.2552 11.7889 10.2552Z" fill="white"/>
<path fill-rule="evenodd" clip-rule="evenodd" d="Mnan nanL15.3662 9.62399C15.1785 9.16224 14.8953 8.66211 14.8197 8.47617C14.744 8.29018 14.1042 7.07948 14.0227 6.95798C13.7886 6.59736 14.13 6.89927 13.9778 6.62074C13.8491 6.4135 13.8116 6.34846 13.7014 6.22383C13.6462 6.1715 13.6127 6.07153 13.5946 6.24187C13.5874 6.39153 13.5798 6.56468 13.5867 6.69079C13.5863 6.76093 13.6361 6.89266 13.6788 6.97029C14.1884 7.88839 14.7394 8.82385 15.2074 9.95543C15.2879 10.1501 15.4146 10.1438 15.4066 9.93329C15.4012 9.79122 15.3857 9.65939 15.3662 9.62399Lnan nanZ" fill="white"/>
<path fill-rule="evenodd" clip-rule="evenodd" d="Mnan nanL6.85193 8.77184C6.83987 8.80286 6.81458 8.84207 6.81651 8.88326C6.81698 8.8932 6.82053 8.90273 6.82559 8.9113C6.84362 8.94185 6.86038 8.94874 6.89145 8.95076C6.95079 8.95076 6.99466 8.90857 6.99465 8.84922C6.99465 8.83422 6.9929 8.81867 6.98882 8.8034C6.9571 8.68711 6.8685 8.73041 6.85193 8.77184Lnan nanZ" fill="#1BA400"/>
<path fill-rule="evenodd" clip-rule="evenodd" d="M13.1841 15.5026C13.1841 15.5026 13.1841 15.5026 13.1841 15.5026C13.329 15.5104 13.4449 15.5148 13.56 15.5246C13.7348 15.5395 13.9125 15.5532 14.0838 15.5152C14.3378 15.4797 14.3796 15.9716 14.386 16.0957C14.387 16.1144 14.3872 16.1333 14.3867 16.152C14.3789 16.5055 14.2805 16.5255 14.1558 16.5647C14.1457 16.5666 14.1363 16.5667 14.1274 16.5653C14.0229 16.5489 13.9163 16.4563 13.8128 16.4353C13.7082 16.4256 13.6036 16.4263 13.499 16.4167C13.4513 16.4105 13.4132 16.4128 13.3764 16.4162C13.2826 16.425 13.2109 16.5335 13.1169 16.5259C13.1048 16.5249 13.0903 16.5212 13.0811 16.5133C13.0304 16.4707 12.9787 16.2755 12.9919 16.1174C12.9927 16.1076 13.0012 16.0784 13.0042 16.069C13.0273 15.9976 12.962 15.9587 12.887 15.9558C11.9041 15.9169 10.9136 15.8562 9.95016 15.8746C9.16266 15.8794 8.38489 15.9273 7.60716 15.9753C7.05356 15.9624 7.2891 15.4627 7.84285 15.4635C7.91371 15.4636 7.97426 15.4619 8.01893 15.4577C8.58098 15.448 9.094 15.381 9.66587 15.357C10.6396 15.3819 11.6061 15.3853 12.5779 15.4598C12.7324 15.4717 12.9277 15.1731 13.0591 15.091C13.0792 15.0784 13.101 15.0811 13.1059 15.1043C13.1139 15.142 13.1226 15.2007 13.1387 15.199C13.2714 15.1844 13.2133 15.4479 13.1841 15.5025C13.184 15.5025 13.1841 15.5026 13.1841 15.5026ZM8.65792 6.38949C8.65792 6.38948 8.65791 6.38948 8.65791 6.38949C8.51094 7.00564 8.68935 7.67152 8.8607 7.79687C8.9049 7.8292 8.9806 7.84114 9.02253 7.80592C9.10649 7.7354 9.16618 7.46717 9.20888 7.16843C9.21458 7.12853 9.23141 7.05591 9.25413 7.02263C9.29461 6.96336 9.30207 7.07687 9.30211 7.14864C9.30229 7.42763 9.31503 7.57896 9.34539 7.68985C9.38065 7.81859 9.45937 7.95321 9.58943 7.9832C9.72324 8.01406 9.81936 7.89861 9.82944 7.8838L9.9958 7.63983C9.99669 7.63845 9.9976 7.6371 9.99851 7.63577C10.0595 7.54728 10.1547 7.67916 10.1971 7.77796C10.2149 7.8193 10.2402 7.86077 10.2869 7.89563C10.3785 7.94937 10.5743 7.90806 10.6197 7.79233C10.6807 7.63891 10.6954 7.58622 10.7237 7.52803C10.748 7.48052 10.7819 7.47135 10.8071 7.47719C10.8389 7.48455 10.8386 7.52383 10.8272 7.55436C10.8203 7.57301 10.8131 7.59327 10.811 7.61696C10.8069 7.66444 10.8465 7.7375 10.8873 7.71276C10.9094 7.6993 10.9267 7.68879 10.9436 7.66917C10.9898 7.61564 11.0296 7.51896 11.0582 7.43462C11.0938 7.32909 11.1143 7.11116 11.0287 7.18237C10.9692 7.23575 10.9027 7.29919 10.8233 7.28938C10.79 7.28526 10.7582 7.26661 10.7361 7.21654C10.6945 7.10523 10.6858 6.95864 10.6635 6.83277C10.653 6.77343 10.6348 6.71491 10.6226 6.6559C10.6185 6.63622 10.6149 6.61538 10.6131 6.5958C10.6072 6.53242 10.667 6.54584 10.7225 6.51457C10.7528 6.49748 10.7595 6.44375 10.7575 6.40901C10.7515 6.30393 10.6669 6.12293 10.6058 6.02348C10.5425 5.92154 10.4548 5.90927 10.3701 6.01333C10.3109 6.09333 10.3194 6.18272 10.3077 6.26745C10.2983 6.32832 10.296 6.39796 10.3121 6.47309C10.333 6.5704 10.3808 6.65987 10.4145 6.75351C10.4488 6.84862 10.4831 6.95737 10.4962 7.08416C10.5121 7.23635 10.4727 7.46811 10.322 7.44182C10.2761 7.42718 10.2019 7.39867 10.1622 6.96888C10.1381 6.70773 10.1572 6.36287 10.117 6.12662C10.0994 6.02311 10.099 5.89954 10.0225 5.82759C10.0017 5.80801 9.97481 5.83204 9.9334 5.94216C9.91114 6.02869 9.81557 6.16002 9.88489 6.43013C9.92721 6.55791 9.9508 6.74554 9.94936 6.96141C9.94834 7.11302 9.91592 7.26537 9.83942 7.39627C9.81593 7.4333 9.79179 7.45525 9.76783 7.46654C9.67772 7.50901 9.60379 7.43901 9.55364 7.35293C9.50411 7.26791 9.50348 7.12852 9.50507 7.03013C9.50947 6.75762 9.51223 6.42056 9.48283 6.33867C9.43115 6.18741 9.34595 6.2421 9.30952 6.28782C9.13461 6.52236 9.0482 6.91811 8.99537 7.23326C8.95325 7.43266 8.90879 7.40932 8.87403 7.33905C8.86292 7.31658 8.85101 7.29427 8.84264 7.27064C8.7694 7.06385 8.75763 6.24363 8.65794 6.38949C8.65793 6.3895 8.65792 6.3895 8.65792 6.38949Z" fill="white"/>
<path fill-rule="evenodd" clip-rule="evenodd" d="M9.17279 7.94632C9.17278 7.94632 9.17278 7.94631 9.17278 7.9463C9.24887 7.86722 9.21541 7.81156 9.32372 7.97017C9.32789 7.97628 9.33147 7.98294 9.33418 7.98983C9.4771 8.35258 9.56886 8.81934 9.58273 9.23329C9.57578 9.35014 9.64801 9.30915 9.70951 9.20957C9.81839 9.03326 10.0577 8.85218 10.3035 8.77891C10.3866 8.75416 10.4643 8.73791 10.4672 8.65129C10.4703 8.5591 10.4615 8.44809 10.4697 8.35622C10.4779 8.26403 10.501 8.17832 10.5354 8.10665C10.6299 7.91007 10.9267 7.89365 11.0402 8.07991C11.1001 8.17825 11.1247 8.31139 11.127 8.47368C11.1003 9.04124 10.7165 9.16174 10.4733 9.21336C10.4479 9.21876 10.4185 9.2237 10.4052 9.24601C10.3833 9.28274 10.4574 9.2958 10.5002 9.29608L11.4021 9.30208C11.4238 9.30223 11.4447 9.30996 11.4612 9.32394C11.4776 9.33789 11.4911 9.35937 11.4757 9.37449C11.4663 9.38372 11.4516 9.40076 11.4326 9.44675C11.3213 9.71564 11.1663 9.99405 10.8848 10.0679C10.814 10.0865 10.7428 10.1028 10.6712 10.1176C10.5013 10.153 10.2962 10.2095 10.2696 10.381C10.2649 10.4116 10.2654 10.4434 10.2714 10.4762C10.2899 10.544 10.3604 10.6117 10.4258 10.663C10.5019 10.7227 10.5752 10.7407 10.5978 10.8347C10.6288 10.9641 10.4505 11.0919 10.3213 11.0601C9.99005 10.9784 9.72921 10.7618 9.59312 10.4686C9.551 10.3779 9.47228 10.2942 9.42982 10.3848C9.23926 10.745 9.05177 11.0694 8.72687 11.2417C8.53311 11.3126 8.33478 11.1981 8.24111 11.012C8.16375 10.8814 8.06418 10.8241 7.93352 10.9014C7.70915 11.0343 7.39003 11.2096 7.28848 11.2004C7.22902 11.195 7.28154 11.1059 7.31668 11.0577C7.49715 10.8098 7.75875 10.6057 8.01616 10.371C8.13918 10.2588 8.21219 10.107 8.24712 9.94427C8.25312 9.91634 8.25974 9.88782 8.26707 9.85947C8.31815 9.66192 8.3768 9.68766 8.38296 9.89162C8.38429 9.96008 8.4144 9.95491 8.45888 9.90285C8.54804 9.7985 8.70191 9.61066 8.78885 9.47326C8.83941 9.39334 8.87482 9.27361 8.87272 9.17906C8.87039 9.07406 8.85451 8.99528 8.81257 8.89899C8.74544 8.74489 8.6719 8.70587 8.64052 8.59253C8.62543 8.5121 8.6196 8.42687 8.62349 8.35068C8.63174 8.18948 8.79151 8.00308 8.89672 8.12549C8.90151 8.13107 8.90628 8.13702 8.91103 8.14333C8.98844 8.245 9.05767 8.43803 9.08311 8.59143C9.08617 8.6099 9.09081 8.63252 9.07309 8.63852C9.00117 8.66287 8.97947 8.65489 9.00522 8.72631C9.02613 8.78433 9.0402 8.84813 9.05223 8.91951C9.10522 9.24869 9.08906 9.37665 9.03571 9.5895C8.88395 10.0575 8.69673 10.2496 8.52096 10.4214C8.45518 10.4858 8.40784 10.537 8.43086 10.626C8.44662 10.687 8.51038 10.767 8.57308 10.7731C8.58413 10.7742 8.59599 10.7745 8.60852 10.7739C8.70253 10.7697 8.78324 10.7099 8.85021 10.6438C9.01844 10.4777 9.18144 10.2406 9.29249 9.97465C9.33986 9.86118 9.36616 9.7397 9.3679 9.61676C9.37129 9.37653 9.3313 9.13249 9.28938 8.91394C9.21 8.64535 9.11652 8.26183 9.11652 8.25549C9.11343 8.08801 9.12272 8.0299 9.1728 7.94634C9.17281 7.94633 9.1728 7.94632 9.17279 7.94632ZMnan nanL6.55296 6.39725C6.66813 6.47782 6.88466 6.44353 6.8755 6.17117C6.8755 6.08622 6.82337 5.94919 6.78189 6.02332C6.77553 6.03469 6.77047 6.04902 6.7675 6.06599C6.75788 6.12313 6.71753 6.15497 6.71424 6.09712C6.71397 6.0923 6.71387 6.08714 6.71398 6.08163C6.71398 6.06823 6.71023 6.05428 6.70565 6.04192C6.69931 6.02484 6.68782 6.00776 6.6696 6.00776C6.64332 6.00927 6.64136 6.04751 6.63781 6.07359C6.63678 6.0812 6.63611 6.08904 6.63611 6.09731C6.63481 6.11447 6.63152 6.12456 6.62578 6.13063C6.61938 6.13741 6.60923 6.14053 6.60049 6.13728C6.59244 6.13429 6.58753 6.12507 6.5823 6.11827C6.5776 6.11216 6.57374 6.1058 6.57374 6.09285C6.57374 6.0769 6.57181 6.05325 6.56897 6.03719C6.56761 6.02945 6.56467 6.02128 6.55914 6.01571C6.54743 6.00393 6.52851 6.00124 6.51418 6.00962C6.49291 6.02205 6.48218 6.05097 6.47726 6.08046C6.46995 6.1243 6.47065 6.17279 6.47468 6.21706C6.4803 6.27877 6.49938 6.36465 6.55296 6.39725Lnan nanZ" fill="white"/>
<path fill-rule="evenodd" clip-rule="evenodd" d="Mnan nanL9.92893 8.49279C10.035 8.56697 10.2758 8.53355 10.2612 8.3246C10.2585 8.28578 10.2513 8.24702 10.2495 8.20815C10.2493 8.20451 10.2491 8.20086 10.2489 8.19722C10.2471 8.15854 10.2485 8.10966 10.2141 8.09183C10.1866 8.07757 10.1534 8.10477 10.1435 8.16152C10.1339 8.21867 10.0935 8.25051 10.0902 8.19265C10.0899 8.18784 10.0898 8.18268 10.09 8.17716C10.09 8.16377 10.0862 8.14982 10.0816 8.13746C10.0753 8.12038 10.0638 8.1033 10.0456 8.1033C10.0193 8.10481 10.0173 8.14304 10.0138 8.16913C10.0128 8.17673 10.0121 8.18458 10.0121 8.19284C10.0108 8.21001 10.0075 8.22009 10.0018 8.22617C9.99536 8.23295 9.98521 8.23607 9.97647 8.23282C9.96842 8.22983 9.96351 8.22061 9.95828 8.2138C9.95358 8.20769 9.94971 8.20133 9.94971 8.18839C9.94971 8.17243 9.94779 8.14879 9.94495 8.13273C9.94358 8.12499 9.94065 8.11681 9.93511 8.11124C9.92341 8.09947 9.90449 8.09678 9.89016 8.10515C9.86889 8.11759 9.85816 8.14651 9.85324 8.176C9.84593 8.21984 9.84663 8.26833 9.85066 8.31259C9.85628 8.37431 9.87536 8.46018 9.92893 8.49279Lnan nanZMnan nanL11.8977 7.62543C12.0129 7.70599 12.2294 7.6717 12.2202 7.39934C12.2202 7.31439 12.1681 7.17736 12.1266 7.2515C12.1203 7.26286 12.1152 7.27719 12.1122 7.29416C12.1026 7.3513 12.0623 7.38314 12.059 7.32529C12.0587 7.32047 12.0586 7.31532 12.0587 7.3098C12.0587 7.2964 12.055 7.28245 12.0504 7.27009C12.044 7.25302 12.0325 7.23593 12.0143 7.23593C11.988 7.23744 11.9861 7.27568 11.9825 7.30176C11.9815 7.30937 11.9808 7.31721 11.9808 7.32548C11.9795 7.34264 11.9762 7.35273 11.9705 7.3588C11.9641 7.36559 11.954 7.3687 11.9452 7.36545C11.9372 7.36246 11.9323 7.35324 11.927 7.34644C11.9223 7.34033 11.9184 7.33397 11.9184 7.32103C11.9184 7.30507 11.9165 7.28142 11.9137 7.26536C11.9123 7.25762 11.9094 7.24945 11.9039 7.24388C11.8922 7.23211 11.8732 7.22941 11.8589 7.23779C11.8376 7.25022 11.8269 7.27914 11.822 7.30863C11.8147 7.35247 11.8154 7.40096 11.8194 7.44523C11.825 7.50695 11.8441 7.59282 11.8977 7.62543Lnan nanZMnan nanL12.9173 9.80406C12.7166 10.1358 12.8051 10.6845 12.8504 10.8027C12.8899 10.9186 12.9248 11.0096 12.9739 11.0846C13.0407 11.1866 13.1472 11.3214 13.2599 11.275C13.3007 11.2582 13.3338 11.2183 13.3577 11.1762C13.4248 11.0743 13.4542 10.8825 13.4773 10.7192C13.503 10.537 13.6173 10.229 13.7168 10.3838C13.72 10.3906 13.7233 10.3973 13.7267 10.4039C13.8026 10.5523 13.9261 10.726 14.0926 10.7189C14.1462 10.7166 14.2011 10.6896 14.2557 10.6349C14.3442 10.562 14.4017 10.468 14.4536 10.2812C14.5111 10.0555 14.479 9.01213 14.4675 8.39378C14.4631 8.34526 14.3531 7.54346 14.3531 7.53452C14.3531 7.52554 14.3386 7.1253 14.3265 7.02994C14.3262 7.02553 14.3259 7.02147 14.3256 7.01776C14.323 6.98497 14.3573 7.00639 14.3835 7.0262C14.395 7.03483 14.4064 7.03887 14.4167 7.02887C14.4366 7.00945 14.4491 6.95372 14.4354 6.9015L14.1831 6.21906C14.1682 6.17873 14.1633 6.12773 14.1206 6.12208C14.0819 6.11694 14.0615 6.18219 14.0444 6.21728C14.0231 6.26093 14.0065 6.31919 14.0072 6.38798C14.0153 6.5641 14.0365 6.74326 14.0446 6.91942L14.1545 7.82376C14.1891 8.46841 14.1978 8.99601 14.2324 9.64066C14.2283 9.87165 14.1862 10.0776 14.1405 10.1563C14.1274 10.1788 14.1239 10.1818 14.1018 10.1956C14.0356 10.237 13.9502 10.1485 13.9142 10.0793C13.8901 10.033 13.8634 9.97719 13.84 9.92667C13.7964 9.83271 13.7424 9.67564 13.6486 9.7196C13.6253 9.73051 13.6033 9.75401 13.5806 9.78462C13.4189 10.0136 13.3457 10.442 13.2358 10.7375C13.2124 10.792 13.1538 10.8399 13.0841 10.7834C13.0488 10.7548 13.0278 10.7126 13.0103 10.6706C12.8249 10.225 12.9441 9.64633 12.9173 9.80406Lnan nanZM11.8872 6.04577C11.9347 6.0277 11.9736 6.05687 12.0015 6.09939C12.0755 6.21235 12.1211 6.44091 12.1016 6.56378C12.0811 6.74892 12.0263 6.94886 11.987 6.92283C11.9442 6.89957 12.0161 6.73877 11.975 6.57011C11.9632 6.51311 11.9195 6.43163 11.8824 6.35818C11.8321 6.25885 11.7832 6.08536 11.8872 6.04577Z" fill="white"/>
<path fill-rule="evenodd" clip-rule="evenodd" d="M13.2491 9.98582C13.2708 9.61774 13.2342 9.3933 13.2277 9.17696C13.2212 8.96062 13.0608 7.30994 13.0283 7.14625C13.0153 7.04381 13.028 7.00463 13.05 6.99154C13.1481 6.93321 13.1475 6.86932 13.1062 6.76292C13.0272 6.5592 12.9158 6.3241 12.8747 6.17021C12.8277 6.04521 12.7697 6.21399 12.7484 6.3458C12.7117 6.57317 12.702 6.76464 12.7216 6.91812C12.865 8.01509 13.0114 8.95549 13.0361 9.96679C13.0435 10.2724 13.1923 10.3273 13.2428 10.0258C13.245 10.0125 13.2471 9.99921 13.2491 9.98589C13.2491 9.98587 13.2491 9.98584 13.2491 9.98582ZMnan nanL15.012 6.56608C15.106 6.63465 15.1611 7.01877 15.1508 7.12852C15.132 7.32898 15.0821 7.54544 15.0463 7.51725C15.0073 7.49207 15.0541 7.21999 15.0354 7.13538C15.0179 7.03561 14.9247 6.86657 14.9032 6.77697C14.8967 6.74993 14.8957 6.72123 14.8947 6.69343C14.8909 6.58915 14.9607 6.54508 15.012 6.56608Lnan nanZM8.02101 9.2897C8.02101 9.28969 8.02102 9.28968 8.02102 9.28969C8.11097 9.34008 8.16374 9.62231 8.15379 9.70299C8.13585 9.85024 8.08808 10.0093 8.05382 9.98862C8.03573 9.97964 8.03695 9.92798 8.04096 9.87006C8.04842 9.76227 8.04883 9.64752 7.99208 9.55558C7.96019 9.50392 7.92379 9.4648 7.91531 9.43032C7.9127 9.4197 7.91226 9.40855 7.91086 9.3977C7.89732 9.29231 7.96837 9.2731 8.02099 9.28971C8.021 9.28971 8.02101 9.28971 8.02101 9.2897Z" fill="white"/>
<path fill-rule="evenodd" clip-rule="evenodd" d="M10.1957 9.71346C10.3119 9.72429 10.3699 9.8579 10.2611 9.91396C10.1538 9.96782 10.0507 10.0099 10.0502 10.2373C10.0614 10.3264 10.0619 10.3819 10.0558 10.4146C10.0363 10.5178 9.89838 10.3683 9.83481 10.2847C9.76051 10.1869 9.67832 10.0348 9.66137 9.80293C9.65469 9.65724 9.84782 9.67256 9.99266 9.6896C10.0601 9.69754 10.1302 9.70357 10.1957 9.71346C10.1957 9.71346 10.1957 9.71346 10.1957 9.71346Z" fill="#1B9D00"/>
<path fill-rule="evenodd" clip-rule="evenodd" d="Mnan nanL5.61565 5.95281C5.74841 6.01152 5.75626 6.29768 5.74647 6.38132C5.72878 6.53403 5.68174 6.69892 5.64798 6.67742C5.61123 6.65826 5.64653 6.45098 5.62889 6.3865C5.61307 6.31373 5.53752 6.19259 5.51506 6.12251C5.50672 6.09649 5.50424 6.06778 5.50492 6.04046C5.50676 5.96774 5.56923 5.93742 5.61565 5.95281Lnan nanZMnan nanL8.2374 7.30178C8.13555 7.38258 8.09603 7.62339 8.15947 7.76366C8.16324 7.77152 8.16715 7.7787 8.17117 7.78525C8.23343 7.88664 8.39434 7.82955 8.4385 7.71907C8.45616 7.67487 8.46897 7.62866 8.47635 7.59895C8.48163 7.57769 8.48724 7.54155 8.46571 7.5456C8.45668 7.5473 8.44313 7.55548 8.42281 7.57591C8.38425 7.6147 8.32418 7.65891 8.30656 7.60713C8.30231 7.59464 8.29878 7.57873 8.29737 7.56561C8.2899 7.49598 8.29352 7.42635 8.31536 7.35668C8.33302 7.28354 8.29455 7.2515 8.2374 7.30178Lnan nanZMnan nanL9.00139 5.84214C8.9502 5.89246 8.84832 6.04725 8.8452 6.22562C8.8438 6.27101 8.84044 6.29586 8.84129 6.31534C8.8437 6.37044 8.87219 6.43879 8.92732 6.44064C8.98222 6.44249 9.03034 6.38497 9.05037 6.33382C9.05743 6.31579 9.0627 6.29458 9.06797 6.26628C9.08355 6.15199 8.98555 6.32049 8.97308 6.1933C8.95308 6.08499 9.00432 6.03534 9.05862 5.93976C9.06869 5.92204 9.07396 5.9019 9.07389 5.88151C9.07371 5.8211 9.06415 5.78753 9.00139 5.84214Lnan nanZM9.61689 6.00254C9.60788 6.03173 9.59814 6.11129 9.59006 6.19521C9.57735 6.32736 9.65714 6.59008 9.69627 6.46321C9.73318 6.31695 9.74949 6.21768 9.75747 6.13917C9.76829 6.03265 9.78627 5.81005 9.6918 5.86045C9.66641 5.874 9.63917 5.92114 9.61689 6.00254ZM13.4975 8.89857C13.4975 8.89857 13.4975 8.89857 13.4975 8.89856C13.5091 8.88156 13.9156 8.45727 14.0201 8.34832C14.0362 8.33148 14.0444 8.309 14.0605 8.32589C14.1557 8.42579 13.9924 8.72119 13.8985 8.82227C13.8185 8.9083 13.723 9.00306 13.645 9.07397C13.5643 9.14736 13.4612 9.11938 13.468 9.01049C13.4709 8.96476 13.4797 8.9218 13.4975 8.89858C13.4975 8.89857 13.4975 8.89857 13.4975 8.89857ZMnan nanL13.984 8.89376C14.078 8.96233 14.1155 9.36585 14.1051 9.47561C14.1084 9.68902 14.0145 9.86017 13.9786 9.83202C13.9396 9.80684 13.982 9.56708 13.9633 9.48247C13.9459 9.383 13.8871 9.21011 13.8763 9.11882C13.8729 9.09054 13.872 9.0615 13.8709 9.03304C13.8666 8.92685 13.9328 8.87279 13.984 8.89376Lnan nanZMnan nanL10.8102 10.6317C10.8423 10.5627 10.9328 10.4675 10.958 10.4434C10.9621 10.4394 10.9712 10.433 10.9764 10.4307C11.0018 10.4192 11.0614 10.5431 11.0561 10.5705C11.0479 10.6129 11.039 10.6584 11.0452 10.7124C11.0455 10.7154 11.0461 10.7183 11.0469 10.7211C11.0487 10.7277 11.0504 10.7343 11.0523 10.7407C11.0698 10.7999 11.1362 10.7584 11.1879 10.7246C11.226 10.6997 11.2635 10.689 11.3017 10.6833C11.3441 10.677 11.3945 10.6794 11.4095 10.7196C11.4106 10.7224 11.4115 10.7254 11.4124 10.7285C11.4366 10.81 11.3497 10.8553 11.273 10.892C11.2286 10.9133 11.1912 10.9358 11.1538 10.9589C11.0879 10.9996 10.9557 11.0777 10.9557 11.0003C10.9557 10.9947 10.9327 10.9661 10.9402 10.8925C10.9428 10.8663 10.948 10.8402 10.946 10.814C10.9458 10.8123 10.9457 10.8106 10.9455 10.8089C10.9382 10.7348 10.8179 10.7935 10.7967 10.7222C10.7898 10.6783 10.7875 10.6569 10.8102 10.6317Lnan nanZMnan nanL14.5453 10.849C14.5682 10.8917 14.583 10.9312 14.5435 11.0013C14.541 11.0047 14.5385 11.008 14.5361 11.0112C14.4754 11.091 14.3741 11.2253 14.4674 11.2622C14.5426 11.2932 14.6924 11.176 14.7614 11.1145C14.7859 11.0928 14.8186 11.0513 14.8228 11.0188C14.8287 10.9729 14.7989 10.936 14.7527 10.9395C14.7452 10.94 14.7378 10.9406 14.7308 10.9407C14.7207 10.9407 14.7105 10.9401 14.7008 10.9373C14.6804 10.9315 14.6538 10.9129 14.6729 10.8611C14.6934 10.8194 14.7007 10.7938 14.7146 10.7424C14.7222 10.7181 14.7229 10.6976 14.7153 10.6799C14.6957 10.6342 14.6389 10.62 14.5893 10.6227C14.5428 10.6252 14.4848 10.6353 14.4726 10.6802C14.4693 10.6922 14.4669 10.707 14.465 10.7252C14.4675 10.8177 14.5058 10.8125 14.5453 10.849Lnan nanZ" fill="white"/>
<path fill-rule="evenodd" clip-rule="evenodd" d="M10.8308 8.57356C10.8162 8.61065 10.7667 8.60884 10.7204 8.56955C10.674 8.53025 10.6482 8.46821 10.6629 8.43108C10.6775 8.39395 10.727 8.39579 10.7733 8.43517C10.8197 8.47455 10.8455 8.53646 10.8308 8.57356ZM8.39527 6.42443C8.36754 6.43438 8.33131 6.39813 8.31433 6.34347C8.29735 6.28881 8.3061 6.23644 8.3338 6.2265C8.3615 6.21655 8.39776 6.25276 8.41474 6.30742C8.43172 6.36208 8.42299 6.41449 8.39527 6.42443Z" fill="#259F00"/>
<path fill-rule="evenodd" clip-rule="evenodd" d="M13.2126 16.0011C13.4149 16.0156 13.6075 16.0098 13.8058 16.0158C13.9069 16.0189 14.0079 16.0804 13.9767 16.1766C13.9741 16.1849 13.971 16.1922 13.9677 16.198C13.9585 16.2142 13.9371 16.2127 13.9186 16.2119C13.9067 16.2115 13.8955 16.211 13.8846 16.2105C13.7991 16.2067 13.7077 16.115 13.6224 16.1224C13.5405 16.1295 13.466 16.2188 13.384 16.213C13.3334 16.2094 13.283 16.202 13.2306 16.1978C13.2128 16.1963 13.1962 16.1864 13.1907 16.1694C13.1705 16.1078 13.1783 16.0228 13.2126 16.0011C13.2126 16.0011 13.2126 16.0011 13.2126 16.0011Z" fill="#209000"/>
</svg>
