<svg width="149" height="117" viewBox="0 0 149 117" fill="none" xmlns="http://www.w3.org/2000/svg">
<path d="M85.3696 0H0.811005V52.8491H58.9451V52.8491C73.5389 52.8491 85.3696 41.0185 85.3696 26.4246V26.4246V0Z" fill="white"/>
<path d="M64.2002 116.263H0.781235V63.4143H44.3818V63.4143C55.3272 63.4143 64.2002 72.2873 64.2002 83.2327V89.8389V116.263Z" fill="white"/>
<path d="M95.9165 0H148.766V52.8491H122.341V52.8491C107.747 52.8491 95.9165 41.0185 95.9165 26.4246V26.4246V0Z" fill="white"/>
<path d="M148.766 89.8389C148.766 104.433 136.935 116.263 122.341 116.263H74.7768V100.409C74.7768 79.9773 91.3398 63.4143 111.771 63.4143V63.4143H122.341C136.935 63.4143 148.766 75.245 148.766 89.8389V89.8389V89.8389Z" fill="white"/>
</svg>
