<svg width="106" height="84" viewBox="0 0 106 84" fill="none" xmlns="http://www.w3.org/2000/svg">
<path d="M60.4033 0H0.00949097V37.7461H41.5302C51.9536 37.7461 60.4033 29.2964 60.4033 18.8731V0Z" fill="white"/>
<path d="M45.2949 83.0391H-0.00044632V45.2929H31.1401C38.9576 45.2929 45.2949 51.6302 45.2949 59.4477V64.166V83.0391Z" fill="white"/>
<path d="M67.9394 0H105.686V37.7461H86.8125C76.3892 37.7461 67.9394 29.2964 67.9394 18.8731V0Z" fill="white"/>
<path d="M105.686 64.166C105.686 74.5893 97.2358 83.0391 86.8125 83.0391H52.8409V71.7152C52.8409 57.1226 64.6706 45.2929 79.2632 45.2929H86.8125C97.2358 45.2929 105.686 53.7427 105.686 64.166Z" fill="white"/>
</svg>
