<svg width="19" height="20" viewBox="0 0 19 20" fill="none" xmlns="http://www.w3.org/2000/svg">
<path d="M15.9885 14.4999H15.4885V13.9999V8.57133C15.4885 5.34495 13.2672 2.66854 10.3413 2.06082L9.90185 1.96955L9.94531 1.52285C9.95808 1.39152 9.944 1.25904 9.90421 1.13418C9.86443 1.00935 9.80005 0.895572 9.71611 0.799835C9.6322 0.70414 9.53072 0.628695 9.41877 0.577434L9.62694 0.122829L9.41877 0.577434C9.30688 0.526196 9.18649 0.5 9.06524 0.5C8.94397 0.5 8.82359 0.526196 8.7117 0.577434L8.50353 0.122829L8.7117 0.577434C8.59975 0.628695 8.49827 0.70414 8.41436 0.799836C8.33042 0.895571 8.26604 1.00935 8.22626 1.13418C8.18647 1.25904 8.17239 1.39152 8.18516 1.52285L8.22853 1.96862L7.7902 2.0606C6.34195 2.36453 5.03673 3.17609 4.0973 4.36193C3.15766 5.54803 2.64253 7.03501 2.64201 8.57133C2.64201 8.57138 2.64201 8.57143 2.64201 8.57149V13.9999V14.4999H2.14201H0.895828C0.813227 14.4999 0.730728 14.5337 0.667404 14.599C0.603565 14.6649 0.565041 14.7574 0.565041 14.8571C0.565041 14.9568 0.603565 15.0493 0.667404 15.1152C0.730728 15.1805 0.813227 15.2142 0.895828 15.2142H2.14201L17.2346 15.2142C17.3172 15.2142 17.3997 15.1805 17.4631 15.1152C17.5269 15.0493 17.5654 14.9568 17.5654 14.8571C17.5654 14.7574 17.5269 14.6649 17.4631 14.599C17.3997 14.5337 17.3172 14.4999 17.2346 14.4999H15.9885ZM6.84758 17.6428C6.94001 18.085 7.15374 18.4929 7.46608 18.8152C7.89295 19.2556 8.46851 19.5 9.06524 19.5C9.66196 19.5 10.2375 19.2556 10.6644 18.8152C10.9767 18.4929 11.1905 18.085 11.2829 17.6428H6.84758Z" stroke="white"/>
</svg>
