<svg width="41" height="40" viewBox="0 0 41 40" fill="none" xmlns="http://www.w3.org/2000/svg">
<path d="M31.1256 29.263L31.3501 29.5934L31.0774 29.8853C28.4319 32.7171 24.6758 34.5 20.5 34.5C16.3242 34.5 12.5681 32.7171 9.92263 29.8853L9.64991 29.5934L9.87445 29.263C11.7547 26.496 14.8947 24.644 18.5 24.644H22.5C26.1033 24.644 29.2452 26.496 31.1256 29.263ZM40 20C40 9.43414 31.0659 0.5 20.5 0.5C9.93414 0.5 1 9.43414 1 20C1 30.5659 9.93414 39.5 20.5 39.5C31.0659 39.5 40 30.5659 40 20ZM14 16C14 12.2677 16.77 9.5 20.5 9.5C24.2279 9.5 27 12.2676 27 16C27 19.7324 24.2279 22.5 20.5 22.5C16.77 22.5 14 19.7323 14 16Z" stroke="white"/>
</svg>
